<?xml version="1.0" encoding="utf-8"?>
<!-- Generator: Adobe Illustrator 27.0.0, SVG Export Plug-In . SVG Version: 6.00 Build 0)  -->
<svg version="1.1" id="Layer_1" xmlns="http://www.w3.org/2000/svg" xmlns:xlink="http://www.w3.org/1999/xlink" x="0px" y="0px"
	 viewBox="0 0 1500 1500" style="enable-background:new 0 0 1500 1500;" xml:space="preserve">
<style type="text/css">
	.st0{display:none;fill:#231F20;}
	.st1{fill:#FFFFFF;}
	.st2{fill:none;}
	.st3{fill:#2B2A2C;}
	.st4{fill:#EF4136;}
	.st5{fill:#2B2A2C;stroke:#FFFFFF;stroke-width:5;stroke-miterlimit:10;}
	.st6{fill:#EF4136;stroke:#FFFFFF;stroke-width:5;stroke-miterlimit:10;}
</style>
<g id="Layer_2_00000155138425769886464910000010401642973354537145_">
	<polygon class="st0" points="750,26.7 1378.1,389.4 1378.1,1114.6 750,1477.3 121.9,1114.6 121.9,389.4 	"/>
	<polygon class="st1" points="1378.1,389.4 1378.1,1114.6 750,1477.3 521.1,1345.1 284.5,1322.5 425.9,1288.4 230.8,1298.6 
		360.8,1252.6 346.5,1244.3 169.6,1256.2 290.4,1213.4 121.9,1125.8 121.9,389.4 749.4,28.3 936.7,135.6 1091.3,41.2 636.6,741 
		733.6,259.5 626,288.3 522.4,317.9 345.3,1194 554.6,1119.9 632.4,758.6 916.1,1078.5 1164.3,1086.2 870.2,741.5 1172,270.4 	"/>
</g>
<g id="Layer_1_00000047039500300487128120000014238897725158745218_">
	<path class="st2" d="M664.7,673.2L664.7,673.2 M508.4,300.3l1.7-0.5 M321.3,1204.9l1.2,0.7l0.8-3.8L321.3,1204.9z"/>
	<polygon class="st3" points="1358.8,1099.9 751.6,1451.3 530.9,1324.9 374.3,1316 537.1,1283.8 544.5,1258.8 321.3,1282.3 
		551.5,1224.7 556.8,1198.8 247.7,1239.4 570.5,1131.9 639.2,797.6 902,1101.2 1203.3,1100.7 892.2,741.3 1178.7,297.7 
		1357.1,399.9 	"/>
	<line class="st2" x1="323.3" y1="1201.8" x2="322.5" y2="1205.6"/>
	<line class="st2" x1="664.7" y1="673.2" x2="664.7" y2="673.2"/>
	<line class="st2" x1="664.7" y1="673.2" x2="664.7" y2="673.2"/>
	<polyline class="st4" points="508.4,300.3 755.2,232.2 664.7,673.2 1042.4,88.2 935.7,158.6 748.4,51.3 141.2,402.8 142.9,1102.4 
		142.9,1102.8 321.3,1204.9 477.3,451.8 314.3,477.9 483.1,423.5 489.1,394.1 248.3,436.5 495.8,361.4 500.5,338.8 181.3,390.6 
		508.4,300.3 	"/>
	<path class="st2" d="M508.4,300.3"/>
	<polyline class="st2" points="264.9,1262.1 264.9,1262.1 265,1262.1 	"/>
	<polyline class="st2" points="264.9,1262.1 264.9,1262.1 265,1262.1 	"/>
	<polygon class="st5" points="275.6,645.2 291.5,677.5 327.2,682.7 301.4,707.9 307.5,743.5 275.6,726.7 243.6,743.5 249.7,707.9 
		223.9,682.7 259.6,677.5 	"/>
	<polygon class="st6" points="1214.6,645.3 1230.6,677.6 1266.3,682.8 1240.5,708 1246.6,743.6 1214.6,726.8 1182.7,743.6 
		1188.8,708 1162.9,682.8 1198.6,677.6 	"/>
</g>
</svg>
